<?xml version="1.0" encoding="UTF-8"?>
<svg width="13px" height="20px" viewBox="0 0 13 20" version="1.1" xmlns="http://www.w3.org/2000/svg" xmlns:xlink="http://www.w3.org/1999/xlink">
    <!-- Generator: Sketch 55.1 (78136) - https://sketchapp.com -->
    <title>alfa</title>
    <desc>Created with Sketch.</desc>
    <g id="Mobile" stroke="none" stroke-width="1" fill="none" fill-rule="evenodd" opacity="0.698200335">
        <g id="Mobile-9" transform="translate(-137.000000, -1370.000000)" fill="#EC3324" fill-rule="nonzero">
            <g id="Group-6" transform="translate(32.000000, 1368.000000)">
                <g id="Group-11">
                    <path d="M111.500763,2 C112.879731,2 113.313034,2.96631629 113.675214,3.93248328 C113.82906,4.34188366 117.410714,13.9366639 117.517399,14.2245342 C117.547466,14.3041149 117.527778,14.436849 117.401099,14.4840301 C117.274267,14.530614 115.413156,15.2390767 115.31044,15.2770007 C115.20757,15.3146261 115.091728,15.2586359 115.053877,15.1586001 C115.01572,15.0591615 114.2442,12.9673614 114.157204,12.7335463 C113.900641,12.7335463 109.106838,12.7335463 108.850733,12.7335463 C108.763278,12.9673614 107.983822,15.0633421 107.947955,15.1586001 C107.912546,15.2549032 107.800519,15.318956 107.69185,15.2770007 C107.582723,15.2347468 105.713217,14.5261347 105.602717,14.4840301 C105.495879,14.4440158 105.446581,14.3248686 105.48489,14.2245342 C105.616148,13.8646978 109.143315,4.42459986 109.323871,3.93248328 C109.673077,2.98169494 110.122253,2 111.500763,2 Z M105.201007,19.1667523 C105.089744,19.1667523 105,19.2573817 105,19.3686156 L105,21.6103141 C105,21.7222946 105.089896,21.8115803 105.201007,21.8115803 L117.800672,21.8115803 C117.91102,21.8115803 118,21.7222946 118,21.6103141 L118,19.3686156 C118,19.2575311 117.91102,19.1667523 117.800672,19.1667523 L105.201007,19.1667523 L105.201007,19.1667523 Z M111.490232,5.13291328 L109.695513,10.403458 L113.313034,10.403458 L111.51221,5.13291328 L111.490232,5.13291328 L111.490232,5.13291328 Z" id="alfa"></path>
                </g>
            </g>
        </g>
    </g>
</svg>