<?xml version="1.0" encoding="UTF-8"?>
<svg width="30px" height="18px" viewBox="0 0 30 18" version="1.1" xmlns="http://www.w3.org/2000/svg" xmlns:xlink="http://www.w3.org/1999/xlink">
    <!-- Generator: Sketch 55.1 (78136) - https://sketchapp.com -->
    <title>master</title>
    <desc>Created with Sketch.</desc>
    <g id="Desktop" stroke="none" stroke-width="1" fill="none" fill-rule="evenodd" opacity="0.698200335">
        <g id="Desktop-10" transform="translate(-624.000000, -891.000000)">
            <g id="Group-19" transform="translate(570.000000, 776.000000)">
                <g id="Group-6" transform="translate(54.000000, 113.000000)">
                    <g id="Group-11">
                        <g id="master" transform="translate(0.000000, 2.000000)">
                            <rect id="Rectangle" fill="#FF5F00" x="10.3345219" y="1.91749011" width="8.75252525" height="14.0982759"></rect>
                            <path d="M11.236037,8.96787325 C11.2338394,6.21720312 12.5142211,3.61829323 14.7082593,1.91998053 C10.9809336,-0.968895461 5.62834444,-0.548105691 2.41214762,2.8866301 C-0.804049206,6.32136589 -0.804049206,11.616871 2.41214762,15.0516068 C5.62834444,18.4863426 10.9809336,18.9071324 14.7082593,16.0182564 C12.5135228,14.3194044 11.233063,11.7194173 11.236037,8.96787325 Z" id="Path" fill="#EB001B"></path>
                            <path d="M29.4178552,8.96787325 C29.4178552,12.4005159 27.4303352,15.53179 24.2996116,17.0318315 C21.168888,18.531873 17.4445193,18.1373298 14.7082593,16.015766 C16.9013401,14.3160114 18.1818182,11.7174471 18.1818182,8.96662804 C18.1818182,6.21580899 16.9013401,3.61724464 14.7082593,1.91749011 C17.4445193,-0.204073735 21.168888,-0.59861691 24.2996116,0.901424584 C27.4303352,2.40146608 29.4178552,5.53274021 29.4178552,8.96538283 L29.4178552,8.96787325 Z" id="Path" fill="#F79E1B"></path>
                        </g>
                    </g>
                </g>
            </g>
        </g>
    </g>
</svg>