<?xml version="1.0" encoding="UTF-8"?>
<svg width="20px" height="20px" viewBox="0 0 20 20" version="1.1" xmlns="http://www.w3.org/2000/svg" xmlns:xlink="http://www.w3.org/1999/xlink">
    <!-- Generator: Sketch 55.1 (78136) - https://sketchapp.com -->
    <title>sber</title>
    <desc>Created with Sketch.</desc>
    <g id="Mobile" stroke="none" stroke-width="1" fill="none" fill-rule="evenodd" opacity="0.698200335">
        <g id="Mobile-9" transform="translate(-170.000000, -1370.000000)" fill="#19C345" fill-rule="nonzero">
            <g id="Group-6" transform="translate(32.000000, 1368.000000)">
                <g id="Group-11">
                    <path d="M156.361345,5.7394958 L144.134454,12.7983193 L138.210084,9.39495798 C138.252101,9.01680672 138.336134,8.68067227 138.462185,8.30252101 L144.092437,11.5378151 L155.731092,4.85714286 C155.941176,5.1512605 156.151261,5.44537815 156.361345,5.7394958 Z M144.092437,14.0588235 L156.907563,6.70588235 C157.621849,8.05042017 158,9.60504202 158,11.2436975 C158,16.789916 153.504202,21.2436975 148,21.2436975 C142.453782,21.2436975 138,16.7478992 138,11.2436975 C138,11.0336134 138,10.7815126 138.042017,10.5714286 L144.092437,14.0588235 Z M154.932773,4.01680672 L144.05042,10.2773109 L138.798319,7.25210084 C138.966387,6.91596639 139.134454,6.57983193 139.302521,6.28571429 L144.092437,9.01680672 L154.05042,3.2605042 C154.344538,3.51260504 154.638655,3.72268908 154.932773,4.01680672 Z M153.042017,2.58823529 L144.05042,7.75630252 L139.890756,5.36134454 C140.142857,5.06722689 140.352941,4.77310924 140.605042,4.5210084 L144.092437,6.49579832 L151.865546,2 C152.285714,2.16806723 152.663866,2.37815126 153.042017,2.58823529 Z" id="sber"></path>
                </g>
            </g>
        </g>
    </g>
</svg>