<?xml version="1.0" encoding="UTF-8"?>
<svg width="34px" height="11px" viewBox="0 0 34 11" version="1.1" xmlns="http://www.w3.org/2000/svg" xmlns:xlink="http://www.w3.org/1999/xlink">
    <!-- Generator: Sketch 55.1 (78136) - https://sketchapp.com -->
    <title>Visa_Inc._logo</title>
    <desc>Created with Sketch.</desc>
    <g id="Desktop" stroke="none" stroke-width="1" fill="none" fill-rule="evenodd" opacity="0.698200335">
        <g id="Desktop-10" transform="translate(-674.000000, -895.000000)" fill="#0742A6">
            <g id="Group-19" transform="translate(570.000000, 776.000000)">
                <g id="Group-6" transform="translate(54.000000, 113.000000)">
                    <g id="Group-11">
                        <g id="Visa_Inc._logo" transform="translate(50.000000, 6.000000)">
                            <g id="Group">
                                <polygon id="polygon9" points="14.699084 10.6203573 11.9638655 10.6203573 13.6746671 0.318268202 16.409736 0.318268202"></polygon>
                                <path d="M24.614494,0.570124886 C24.0749887,0.3616767 23.2192888,0.131524265 22.1612182,0.131524265 C19.4601021,0.131524265 17.5579983,1.53428879 17.5463317,3.53981963 C17.5238959,5.01949585 18.9081824,5.84134398 19.943518,6.33471505 C21.0017381,6.83886542 21.3614581,7.16792513 21.3614581,7.61730504 C21.350689,8.30747102 20.5063565,8.62560578 19.7188612,8.62560578 C18.626838,8.62560578 18.0417133,8.46158575 17.1525093,8.07760991 L16.7923405,7.91300722 L16.4095864,10.2256022 C17.0510996,10.5102338 18.2330156,10.7628188 19.4601021,10.7738894 C22.3300847,10.7738894 24.198535,9.39282911 24.2206716,7.25561612 C24.2315903,6.08285837 23.5006332,5.18424421 21.9247453,4.44994141 C20.9680844,3.97856591 20.3822119,3.66072249 20.3822119,3.17842204 C20.3934298,2.73996708 20.8777431,2.2908785 21.9576511,2.2908785 C22.8468551,2.26888292 23.5001845,2.47703978 23.9951174,2.6853423 L24.242509,2.79473754 L24.614494,0.570124886 L24.614494,0.570124886 L24.614494,0.570124886 Z" id="path11"></path>
                                <path d="M28.2498352,6.97069323 C28.4750902,6.37885188 29.3418585,4.08825249 29.3418585,4.08825249 C29.330491,4.11024807 29.5666648,3.48548617 29.7017281,3.10194734 L29.8928808,3.98963654 C29.8928808,3.98963654 30.4108477,6.45561791 30.5233257,6.97069323 C30.0958496,6.97069323 28.7900883,6.97069323 28.2498352,6.97069323 L28.2498352,6.97069323 Z M31.6261182,0.318268202 L29.5104258,0.318268202 C28.8579939,0.318268202 28.3623131,0.504429476 28.0808191,1.17303687 L24.0180019,10.6202117 L26.8879845,10.6202117 C26.8879845,10.6202117 27.3604816,9.34869229 27.4620408,9.07484002 C27.7768893,9.07484002 30.5687955,9.07484002 30.9738358,9.07484002 C31.0523609,9.43652894 31.3002013,10.6202117 31.3002013,10.6202117 L33.8327501,10.6202117 L31.6261182,0.318268202 L31.6261182,0.318268202 L31.6261182,0.318268202 Z" id="path13" fill-rule="nonzero"></path>
                                <path d="M9.6793067,0.318268202 L7.00062635,7.34330711 L6.70791445,5.91854701 C6.21268241,4.27455943 4.65952943,2.48840173 2.92629207,1.60027553 L5.37986694,10.6094324 L8.27228531,10.6094324 L12.5715755,0.318268202 L9.6793067,0.318268202 L9.6793067,0.318268202 L9.6793067,0.318268202 Z" id="path15"></path>
                                <path d="M4.51324826,0.318268202 L0.112548435,0.318268202 L0.0675273398,0.526425057 C3.50034842,1.38133939 5.77383891,3.44207768 6.70791445,5.91898401 L5.75125358,1.18425316 C5.59375454,0.52627939 5.10974037,0.339972451 4.51324826,0.318268202 L4.51324826,0.318268202 Z" id="path17"></path>
                            </g>
                        </g>
                    </g>
                </g>
            </g>
        </g>
    </g>
</svg>