<?xml version="1.0" encoding="UTF-8"?>
<svg width="80px" height="16px" viewBox="0 0 80 16" version="1.1" xmlns="http://www.w3.org/2000/svg" xmlns:xlink="http://www.w3.org/1999/xlink">
    <!-- Generator: Sketch 55.1 (78136) - https://sketchapp.com -->
    <title>Group 30</title>
    <desc>Created with Sketch.</desc>
    <g id="Desktop" stroke="none" stroke-width="1" fill="none" fill-rule="evenodd" opacity="0.698200335">
        <g id="Desktop-10" transform="translate(-954.000000, -893.000000)">
            <g id="Group-19" transform="translate(570.000000, 776.000000)">
                <g id="Group-6" transform="translate(54.000000, 113.000000)">
                    <g id="Group-11">
                        <g id="Group-30" transform="translate(330.000000, 4.000000)">
                            <path d="M33.7023574,8.4434981 C33.7023574,5.56197719 34.815057,3.72030418 36.9669962,3.72030418 C37.7873764,3.72030418 38.261597,3.9391635 38.6628137,4.19422053 L38.4622053,5.54403042 C38.0792395,5.21551331 37.5321673,4.90570342 36.9485932,4.90570342 C35.9273004,4.90570342 35.1980228,6.05444867 35.1980228,8.3704943 C35.1980228,10.6681369 35.744943,11.9814449 36.8938403,11.9814449 C37.5867681,11.9814449 38.1157414,11.7078327 38.4439544,11.4161217 L38.7721673,12.4736122 C38.2798479,12.8929278 37.6962738,13.1665399 36.8573384,13.1665399 C34.8877567,13.1665399 33.7023574,11.5802281 33.7023574,8.4434981 Z M29.5446388,8.46144487 L29.5446388,13.0389354 L28.1221293,13.0389354 L28.1221293,3.84775665 L29.5446388,3.84775665 L29.5446388,8.09688213 L31.7511787,3.84775665 L33.1919392,3.84775665 L30.9123954,8.16988593 L33.52,13.0389354 L31.970038,13.0389354 L29.5446388,8.46144487 Z M22.8518631,7.60456274 L25.2044106,7.60456274 C25.2044106,6.03619772 24.9490494,4.88730038 24.1285171,4.88730038 C23.2530798,4.88730038 22.9431179,5.96319392 22.8518631,7.60456274 Z M24.4202281,13.1665399 C22.5236502,13.1665399 21.356654,11.6532319 21.356654,8.82676806 C21.356654,5.87209125 22.1773384,3.72030418 24.1285171,3.72030418 C25.6603802,3.72030418 26.6634221,4.86904943 26.6634221,7.98722433 L26.6634221,8.77171103 L22.8336122,8.77171103 C22.8336122,10.8507985 23.4171863,11.944943 24.5478327,11.944943 C25.3502662,11.944943 25.9885932,11.5802281 26.353308,11.325019 L26.681673,12.4185551 C26.0980989,12.8748289 25.3320152,13.1665399 24.4202281,13.1665399 Z M18.3657795,4.99665399 L16.7791635,4.99665399 L16.7791635,5.16106464 C16.7791635,7.0939924 16.6880608,9.92030418 15.9221293,11.8717871 L18.3657795,11.8717871 L18.3657795,4.99665399 Z M20.4993156,14.8444106 L19.2229658,14.8444106 L19.2229658,13.0389354 L15.2838023,13.0389354 L15.2838023,14.8444106 L14.0074525,14.8444106 L14.0074525,11.8717871 L14.5727757,11.8717871 C15.4114068,9.92030418 15.5026616,7.07574144 15.5026616,4.63193916 L15.5026616,3.84775665 L19.770038,3.84775665 L19.770038,11.8717871 L20.4993156,11.8717871 L20.4993156,14.8444106 Z M13.1867681,3.84775665 L13.1867681,13.0389354 L11.7825095,13.0389354 L11.7825095,8.91771863 L9.66707224,8.91771863 L9.66707224,13.0389354 L8.24456274,13.0389354 L8.24456274,3.84775665 L9.66707224,3.84775665 L9.66707224,7.75011407 L11.7825095,7.75011407 L11.7825095,3.84775665 L13.1867681,3.84775665 Z M47.4786312,0.747680608 L44.6521673,0.747680608 C44.5972624,4.04836502 44.5060076,6.56501901 44.3601521,8.4434981 C44.1960456,10.3945247 43.9041825,11.6892776 43.4120152,12.2915589 L47.4786312,12.2915589 L47.4786312,0.747680608 Z M48.4451711,13.0389354 L42.864943,13.0389354 L42.7370342,15.2091255 L42.0260076,15.2091255 L42.0260076,12.2915589 L42.4089734,12.2915589 C43.0473004,11.7622814 43.3571103,10.3035741 43.5394677,8.4434981 C43.7218251,6.51057034 43.7765779,3.62889734 43.8314829,-1.03028697e-13 L48.3904183,-1.03028697e-13 L48.3904183,12.2915589 L49.2844106,12.2915589 L49.2844106,15.2091255 L48.5726236,15.2091255 L48.4451711,13.0389354 Z M51.0544487,7.91422053 L54.3922433,7.91422053 C54.5377947,5.47087452 53.8085171,4.37688213 52.8784791,4.37688213 C51.9119392,4.37688213 51.1274525,5.61673004 51.0544487,7.91422053 Z M53.0605323,12.4736122 C54.2821293,12.4736122 54.9204563,11.4891255 54.9204563,11.4891255 L55.1942205,12.1814449 C55.1942205,12.1814449 54.5012928,13.2209886 53.0425856,13.2209886 C51.0915589,13.2209886 50.1975665,11.4520152 50.1975665,8.4434981 C50.1975665,5.43437262 51.3280608,3.66539924 52.8784791,3.66539924 C54.4647909,3.66539924 55.4857795,5.3251711 55.1942205,8.58965779 L51.0365019,8.58965779 C51.0730038,11.1060076 51.7292776,12.4736122 53.0605323,12.4736122 Z M60.8123194,8.60760456 L57.6755894,8.60760456 L57.6755894,13.0389354 L56.8187072,13.0389354 L56.8187072,3.84775665 L57.6755894,3.84775665 L57.6755894,7.91422053 L60.8123194,7.91422053 L60.8123194,3.84775665 L61.6692015,3.84775665 L61.6692015,13.0389354 L60.8123194,13.0389354 L60.8123194,8.60760456 Z M64.5519392,7.93277567 L64.5519392,12.3641065 L65.0993156,12.3641065 C66.3939163,12.3641065 67.2693536,11.7262357 67.2693536,10.1394677 C67.2693536,8.58965779 66.5035741,7.93277567 65.1902662,7.93277567 L64.5519392,7.93277567 Z M63.6955133,3.84775665 L64.5519392,3.84775665 L64.5519392,7.25809886 L65.2273764,7.25809886 C66.9777947,7.25809886 68.1084411,8.20638783 68.1084411,10.1213688 C68.1084411,12.0723954 66.9047909,13.0389354 65.1723194,13.0389354 L63.6955133,13.0389354 L63.6955133,3.84775665 Z M70.4252471,4.55923954 L70.4252471,13.0389354 L69.5867681,13.0389354 L69.5867681,3.84775665 L73.4708745,3.84775665 L73.4708745,4.55923954 L70.4252471,4.55923954 Z M79.0710266,6.63802281 C79.0710266,6.16380228 79.1069202,5.76258555 79.1440304,5.37961977 L79.0889734,5.37961977 C78.9613688,5.7808365 78.7974144,6.16380228 78.5968061,6.56501901 L75.6062357,13.0389354 L74.8768061,13.0389354 L74.8768061,3.84775665 L75.6792395,3.84775665 L75.6792395,10.2304183 C75.6792395,10.7227376 75.6421293,11.1239544 75.6062357,11.5251711 L75.6606844,11.5251711 C75.788289,11.1060076 75.9703422,10.7047909 76.1530038,10.3035741 L79.1440304,3.84775665 L79.8914068,3.84775665 L79.8914068,13.0389354 L79.0710266,13.0389354 L79.0710266,6.63802281 Z" id="Yandex" fill="#000000"></path>
                            <path d="M5.01490494,1.18539924 L4.26722433,1.18539924 C3.13657795,1.18539924 2.04258555,1.93307985 2.04258555,4.10326996 C2.04258555,6.20030418 3.04532319,6.87513308 4.26722433,6.87513308 L5.01490494,6.87513308 L5.01490494,1.18539924 Z M3.84775665,8.04228137 L1.62311787,13.0389354 L-4.36539693e-13,13.0389354 L2.44380228,7.6956654 C1.29460076,7.11209125 0.528669202,6.05444867 0.528669202,4.10326996 C0.528669202,1.36775665 2.26114068,-2.06057393e-13 4.32197719,-2.06057393e-13 L6.4191635,-2.06057393e-13 L6.4191635,13.0389354 L5.01490494,13.0389354 L5.01490494,8.04228137 L3.84775665,8.04228137 L3.84775665,8.04228137 Z" id="Fill-1" fill="#FF0000"></path>
                        </g>
                    </g>
                </g>
            </g>
        </g>
    </g>
</svg>