<svg xmlns="http://www.w3.org/2000/svg" viewBox="0 0 80 80"><path fill="#3c7e9c" d="M45 0L32.99 8 45 16V9.398a30.952 30.952 0 0 1 10.545 3.776c7.164 4.15 12.286 10.842 14.418 18.844 4.4 16.516-5.455 33.531-21.973 37.935-8 2.132-16.353 1.021-23.52-3.129-7.163-4.15-12.283-10.842-14.415-18.844-2.954-11.083.511-22.393 8.103-29.964.223-.222.463-.43.694-.647l-1.422-1.426c-8.552 8.053-12.542 20.43-9.31 32.553 2.27 8.517 7.722 15.64 15.349 20.059 7.628 4.419 16.52 5.602 25.037 3.332a32.788 32.788 0 0 0 14.76-8.487c8.082-8.06 11.773-20.099 8.629-31.898-2.27-8.517-7.721-15.643-15.348-20.06A32.932 32.932 0 0 0 45 7.376V0zm5.338 14.055a1 1 0 0 0-1 1 1 1 0 0 0 1 1 1 1 0 0 0 1-1 1 1 0 0 0-1-1zm4.668 2.496a1 1 0 0 0-1 1 1 1 0 0 0 1 1 1 1 0 0 0 1-1 1 1 0 0 0-1-1zm-34.092 3.357a1 1 0 0 0-1 1 1 1 0 0 0 1 1 1 1 0 0 0 1-1 1 1 0 0 0-1-1zm38.186 0a1 1 0 0 0-1 1 1 1 0 0 0 1 1 1 1 0 0 0 1-1 1 1 0 0 0-1-1zM17.559 24a1 1 0 0 0-1 1 1 1 0 0 0 1 1 1 1 0 0 0 1-1 1 1 0 0 0-1-1zm44.896 0a1 1 0 0 0-1 1 1 1 0 0 0 1 1 1 1 0 0 0 1-1 1 1 0 0 0-1-1zm-47.39 4.668a1 1 0 0 0-1 1 1 1 0 0 0 1 1 1 1 0 0 0 1-1 1 1 0 0 0-1-1zm49.884 0a1 1 0 0 0-1 1 1 1 0 0 0 1 1 1 1 0 0 0 1-1 1 1 0 0 0-1-1zm-18.142 2.428c-3.926 0-6.258 3.257-6.258 8.847 0 5.625 2.308 8.884 6.258 8.883 3.937 0 6.234-3.246 6.234-8.86 0-5.6-2.332-8.87-6.234-8.87zm-14.7.41l-4.453 3.14v2.684l4.242-3h.2v14.086h2.625v-16.91h-2.614zm14.7 1.887c2.274 0 3.586 2.308 3.586 6.55 0 4.29-1.29 6.586-3.586 6.586-2.297 0-3.61-2.309-3.61-6.586 0-4.23 1.336-6.55 3.61-6.55zm-33.28.34a1 1 0 0 0-1 1 1 1 0 0 0 1 1 1 1 0 0 0 1-1 1 1 0 0 0-1-1zm52.96 0a1 1 0 0 0-1 1 1 1 0 0 0 1 1 1 1 0 0 0 1-1 1 1 0 0 0-1-1zM13.006 39a1 1 0 0 0-1 1 1 1 0 0 0 1 1 1 1 0 0 0 1-1 1 1 0 0 0-1-1zm54 0a1 1 0 0 0-1 1 1 1 0 0 0 1 1 1 1 0 0 0 1-1 1 1 0 0 0-1-1zm-53.482 5.268a1 1 0 0 0-1 1 1 1 0 0 0 1 1 1 1 0 0 0 1-1 1 1 0 0 0-1-1zm52.961 0a1 1 0 0 0-1 1 1 1 0 0 0 1 1 1 1 0 0 0 1-1 1 1 0 0 0-1-1zM15.06 49.332a1 1 0 0 0-1 1 1 1 0 0 0 1 1 1 1 0 0 0 1-1 1 1 0 0 0-1-1zm49.89 0a1 1 0 0 0-1 1 1 1 0 0 0 1 1 1 1 0 0 0 1-1 1 1 0 0 0-1-1zM17.555 54a1 1 0 0 0-1 1 1 1 0 0 0 1 1 1 1 0 0 0 1-1 1 1 0 0 0-1-1zm44.9.002a1 1 0 0 0-1 1 1 1 0 0 0 1 1 1 1 0 0 0 1-1 1 1 0 0 0-1-1zm-41.54 4.09a1 1 0 0 0-1 1 1 1 0 0 0 1 1 1 1 0 0 0 1-1 1 1 0 0 0-1-1zm38.185 0a1 1 0 0 0-1 1 1 1 0 0 0 1 1 1 1 0 0 0 1-1 1 1 0 0 0-1-1zm-34.096 3.357a1 1 0 0 0-1 1 1 1 0 0 0 1 1 1 1 0 0 0 1-1 1 1 0 0 0-1-1zm30 .002a1 1 0 0 0-1 1 1 1 0 0 0 1 1 1 1 0 0 0 1-1 1 1 0 0 0-1-1zm-25.332 2.494a1 1 0 0 0-1 1 1 1 0 0 0 1 1 1 1 0 0 0 1-1 1 1 0 0 0-1-1zm20.666 0a1 1 0 0 0-1 1 1 1 0 0 0 1 1 1 1 0 0 0 1-1 1 1 0 0 0-1-1zm-5.065 1.535a1 1 0 0 0-1 1 1 1 0 0 0 1 1 1 1 0 0 0 1-1 1 1 0 0 0-1-1zm-10.535.002a1 1 0 0 0-1 1 1 1 0 0 0 1 1 1 1 0 0 0 1-1 1 1 0 0 0-1-1zm5.27.518a1 1 0 0 0-1 1 1 1 0 0 0 1 1 1 1 0 0 0 1-1 1 1 0 0 0-1-1z"/></svg>