<svg xmlns="http://www.w3.org/2000/svg" viewBox="0 0 136 33"><path d="M47.5 18.2c.6.1.9.2 1.1.4.2.2.4.6.4 1 0 1-.8 1.5-2.1 1.5-.9 0-1.5-.2-2.3-.6-.5-.2-.7-.3-1-.3-.2 0-.5.1-.7.3-.2.2-.3.5-.3.8 0 .7.4 1 1.2 1.4.9.4 1.7.6 3 .6 2.5 0 4.5-1.3 4.5-3.7 0-1.1-.3-2-.9-2.6-.5-.5-1.2-.8-2.3-.9l-1.4-.2c-.6-.1-.9-.2-1.1-.5-.3-.2-.3-.6-.3-.9 0-.8.6-1.5 1.9-1.5.7 0 1.3.1 1.9.5.3.1.6.3.9.3.3 0 .5-.1.7-.3.2-.2.3-.5.3-.7 0-.5-.4-.9-1-1.2-.8-.4-1.6-.6-2.7-.6-2.6 0-4.2 1.5-4.2 3.7 0 1 .3 1.8.9 2.4.6.5 1.3.9 2.3 1l1.2.1zm9.1-5.6c0-.6 0-.8-.2-1-.2-.3-.6-.6-1-.6-.5 0-.9.2-1 .6-.1.3-.2.5-.2 1v9.1c0 .6 0 .8.2 1 .2.3.6.6 1 .6.5 0 .9-.2 1-.6.1-.3.2-.5.2-1v-9.1zm9.1 8.2c.6 0 .8-.2 1.1-.8l2-3.9v5.5c0 .6 0 .7.2 1 .2.3.6.6 1 .6.5 0 .9-.2 1-.6.1-.3.2-.5.2-1v-9.2c0-.5-.1-.9-.4-1.1-.2-.2-.4-.3-.8-.3-.3 0-.5.1-.7.2-.2.2-.5.4-.6.7l-3 5.8-3-5.8c-.2-.3-.4-.6-.6-.7-.2-.2-.5-.2-.7-.2-.3 0-.6.1-.8.3-.3.3-.4.6-.4 1.1v9.2c0 .6 0 .7.2 1 .2.3.6.6 1 .6.5 0 .9-.2 1-.6.1-.3.2-.5.2-1v-5.5l2 3.9c.3.6.5.8 1.1.8zm8.6 1.9c.2.3.6.6 1 .6.5 0 .9-.2 1-.6.1-.3.2-.5.2-1v-3h2.3c2.5 0 4-1.7 4-3.8 0-2.1-1.5-3.8-4-3.8h-3.3c-.3 0-.8 0-1.1.3-.3.3-.3.8-.3 1.1v9.1c0 .6 0 .8.2 1.1zm2.2-6.2v-3.3h2.2c1.1 0 1.8.7 1.8 1.7s-.7 1.7-1.8 1.7h-2.2v-.1zm9.8 6.6h5.1c.5 0 .7 0 .9-.1.3-.2.5-.5.5-.9s-.2-.8-.5-.9c-.2-.1-.4-.1-.9-.1h-4.1v-8.5c0-.6 0-.7-.2-1-.2-.3-.6-.6-1-.6-.5 0-.9.2-1 .6-.1.3-.2.5-.2 1v9.1c0 .3 0 .8.3 1.1.3.3.8.3 1.1.3zm9.9 0h5.2c.5 0 .7 0 .9-.1.3-.2.5-.5.5-.9s-.2-.8-.5-.9c-.2-.1-.4-.1-.9-.1h-4.3v-2.9h3.4c.5 0 .7 0 .9-.1.3-.2.5-.5.5-.9s-.2-.8-.5-.9c-.2-.1-.4-.1-.9-.1h-3.4v-2.8h4.3c.5 0 .7 0 .9-.1.3-.2.5-.5.5-.9s-.2-.8-.5-.9c-.2-.1-.4-.1-.9-.1h-5.2c-.3 0-.8 0-1.1.3-.3.3-.3.8-.3 1.1V22c0 .3 0 .8.3 1.1h1.1zm10.3 0h2.9c1.7 0 2.7-.5 3.7-1.8.8-1 .8-2.3.8-4.3s0-3.3-.8-4.3c-.9-1.2-2-1.8-3.7-1.8h-2.9c-.3 0-.8 0-1.1.3-.3.3-.3.8-.3 1.1v9.2c0 .3 0 .8.3 1.1.4.5.8.5 1.1.5zm1-10h1.8c.8 0 1.4.3 1.8.7.4.6.5 1.3.5 3.2 0 1.9-.1 2.6-.5 3.2-.4.5-1 .7-1.8.7h-1.8v-7.8zm13 10.1c1.4 0 2.4-.5 3.3-1.3 1.2-1.2 1.2-2.6 1.2-4.9 0-2.3 0-3.7-1.2-4.9-.8-.8-1.8-1.3-3.3-1.3-1.4 0-2.4.5-3.3 1.3-1.2 1.2-1.2 2.6-1.2 4.9 0 2.3 0 3.7 1.2 4.9.9.9 1.9 1.3 3.3 1.3zm0-10.2c.6 0 1.2.3 1.5.6.5.5.6 1.1.6 3.4s-.1 2.9-.6 3.4c-.3.4-.9.7-1.5.7s-1.2-.3-1.5-.7c-.5-.5-.6-1.1-.6-3.4s.1-2.9.6-3.4c.3-.3.9-.6 1.5-.6zm11 8.1c-.6 0-1.1-.3-1.4-.6-.5-.6-.6-1.2-.6-3.4s.1-2.8.6-3.4c.3-.4.8-.6 1.4-.6.8 0 1.4.4 1.8 1.3.2.3.3.7.6.8.2.1.4.2.7.2.3 0 .6-.1.8-.3.2-.2.3-.5.3-.9 0-.5-.2-1.3-1-2.1-.8-.7-1.7-1.1-3.1-1.1-1.4 0-2.4.5-3.2 1.3-1.2 1.2-1.2 2.6-1.2 4.9 0 2.3 0 3.7 1.2 4.9.8.8 1.9 1.3 3.2 1.3 1.4 0 2.3-.3 3.1-1.1.8-.8 1-1.6 1-2.1 0-.4-.1-.7-.3-.9-.2-.2-.5-.3-.8-.3-.3 0-.5.1-.7.2-.2.2-.4.5-.6.8-.4.7-1 1.1-1.8 1.1z" fill="#1a66a4"/><path d="M6.3 0C3.9-.2 2 .9 1.1 2.1-.2 3.9.1 6 .1 8.5v14.9c0 2.1-.3 5.1.5 6.9.9 1.8 2.6 2.7 4.7 2.7h7.4c2.1 0 5.1.2 6.9-.4 4.5-1.5 5.8-6.1 4.2-9.4-1.5-3.1-5.9-3.9-9.7-5.2-4.2-1.4-7-2.7-8.7-6.2C4.3 9 4.1 5.4 5.2 2.4 5.7 1.2 6.2.5 6.3 0z" fill-rule="evenodd" clip-rule="evenodd" fill="#a4b430"/><path d="M26.4 33c1.3 0 2.3.1 3.4-.4 3.7-1.5 3.1-5.1 3.2-8.1V9.7c0-2.1.2-5.2-.6-6.9C31.5.9 29.8.1 27.7.1h-7.4c-2.2 0-4.9-.2-6.9.3-5 1.2-5.8 6.5-3.9 9.3 2.2 3.2 11 3.5 15.2 7 3.2 2.7 4.3 6.7 3.7 11-.3 2.3-1.1 3.5-2 5.3z" fill-rule="evenodd" clip-rule="evenodd" fill="#1a66a4"/></svg>