<svg xmlns="http://www.w3.org/2000/svg" viewBox="0 0 33 33"><g fill-rule="evenodd" clip-rule="evenodd" fill="#fff"><path d="M6.3 0C3.9-.2 2 .9 1.1 2.1-.2 3.9.1 6 .1 8.5v14.9c0 2.1-.3 5.1.5 6.9.9 1.8 2.6 2.7 4.7 2.7h7.4c2.1 0 5.1.2 6.9-.4 4.5-1.5 5.8-6.1 4.2-9.4-1.5-3.1-5.9-3.9-9.7-5.2-4.2-1.4-7-2.7-8.7-6.2C4.3 9 4.1 5.4 5.2 2.4 5.7 1.2 6.2.5 6.3 0z"/><path d="M26.4 33c1.3 0 2.3.1 3.4-.4 3.7-1.5 3.1-5.1 3.2-8.1V9.7c0-2.1.2-5.2-.6-6.9C31.5.9 29.8.1 27.7.1h-7.4c-2.2 0-4.9-.2-6.9.3-5 1.2-5.8 6.5-3.9 9.3 2.2 3.2 11 3.5 15.2 7 3.2 2.7 4.3 6.7 3.7 11-.3 2.3-1.1 3.5-2 5.3z"/></g></svg>