<svg width="30" height="30" xmlns="http://www.w3.org/2000/svg"><path d="M15 0C6.709 0 0 6.71 0 15c0 8.291 6.71 15 15 15 8.291 0 15-6.71 15-15 0-8.291-6.71-15-15-15zm0 27.656c-6.996 0-12.656-5.66-12.656-12.656S8.004 2.344 15 2.344 27.656 8.004 27.656 15 21.996 27.656 15 27.656zm.586-20.105h-4.102a1.172 1.172 0 1 0 0 2.344h4.102c.97 0 1.758.789 1.758 1.758a1.76 1.76 0 0 1-1.758 1.758h-1.172c-.647 0-1.172.524-1.172 1.172v1.687a1.172 1.172 0 1 0 2.344 0v-.515a4.106 4.106 0 0 0 4.101-4.102 4.106 4.106 0 0 0-4.101-4.102zm-1.172 14.49a1.582 1.582 0 1 0 0-3.164 1.582 1.582 0 0 0 0 3.164z" fill="#BAB8B8"/></svg>