<svg xmlns="http://www.w3.org/2000/svg" viewBox="0 0 64 64"><path fill="#3c7e9c" d="M55.625 9c-.548 0-.784.244-.979.414a3.97 3.97 0 0 0-.486.524c-.284.354-.548.734-.656.863a1 1 0 0 0 0 .002c-.39.466-1.28.817-2.11 1.756-.74.838-.968 1.813-1.16 2.601-.192.788-.357 1.395-.668 1.781-.07.087-.003.05-.35.086-.346.036-1.115.105-1.663.72a1 1 0 0 0-.002.001c-.485.545-.602 1.066-.668 1.256-.017 0 .018-.004-.008-.004-.454 0-.886-.047-1.406.018a2.7 2.7 0 0 0-1.592.796c-.77.815-.87 1.782-.873 2.403-.135-.28-.261-.57-.555-.803-.379-.3-.878-.414-1.324-.414-.82 0-1.32.502-1.602.752-.28.25-.342.248-.273.248-.175 0-.34-.018-.53-.023.136-.268.28-.546.28-.852a1 1 0 0 0-.125-.486c-.364-.656-1.037-.81-1.418-.868-.31-.046-.436-.064-.469-.058-.049-.037-.122-.087-.218-.176-.227-.208-.672-.537-1.27-.537-.645 0-1.17.503-1.36.803-.187.298-.282.474-.242.43h-.002v.001c-.122.136-.259.191-.63.284-.373.092-.957.181-1.541.607-.371.27-.565.62-.67.822-.105.202-.145.258-.14.254l-.003.002c-.045.012-.246.036-.539.123-.614.184-.837.587-.953.733-.052.065-.067.078-.043.058-.165.027-.303.086-.451.139.01-.099.074-.152.074-.256 0-.423-.09-.856-.363-1.256-.273-.399-.806-.732-1.366-.744h-.001a1.72 1.72 0 0 0-1.096.396c-.27.226-.44.483-.58.739-.163.299-.24.611-.344.922a1.775 1.775 0 0 0-.37-.616A1.479 1.479 0 0 0 23.876 22c-.41 0-.819.173-1.074.38-.209.17-.306.32-.397.452l-.04-.039c-.28-.28-.906-.793-1.739-.793-3.037 0-4.156-.709-4.37-.916-.005-.026-.096-.176-.146-.354a3.084 3.084 0 0 1-.109-.744c0-.169.082-.456.145-.72.096.184.238.397.462.533.255.154.533.201.768.201a1.53 1.53 0 0 0 1.016-.422c.239-.239.355-.495.433-.73.157-.471.176-.917.176-1.348 0-.188.021-.662-.16-1.207a1.948 1.948 0 0 0-.537-.854A1.819 1.819 0 0 0 17.125 15c-.025 0-.4-.037-.813.088-.411.125-.833.394-1.269.83-.83.83-1.003 1.268-2.1 2.607-.308.377-.408.426-.441.438-.033.012-.21.032-.688.027a1 1 0 0 0-.025 0c-.405.006-.79.049-1.148.256-.36.208-.513.442-.65.604a1 1 0 0 0-.005.005c-.08.095-.075.108-.095.145h-.764c-.984 0-1.761.601-2.193 1.2-.433.597-.66 1.228-.84 1.648a1 1 0 0 0 0 .002c-.064.15-.068.157-.13.289-.135-.042-.224-.143-.366-.139-.272.008-.656.05-1.028.346S4 24.17 4 24.625c0 .568.249 1.02.377 1.234.035.059.032.052.043.073-.014.014-.062.178-.166.511-.121.39-.254.92-.254 1.557 0 1.12-.007 1.232 0 1.643a1 1 0 0 0 0 .002c.003.176-.023.285-.043.382-.396.018-.81.05-1.107.096-.847.13-.85.383-1.475.383-.123 0-.296.004-.514.086a1.34 1.34 0 0 0-.595.476c-.27.407-.258.73-.256 1.082-.022.657.091 1.189.299 1.766.264.738.646 1.104.744 1.322a1 1 0 0 0 .002.002c.205.454.356 1.222.61 1.985-.029-.085.011.09.028.293.017.204.034.467.07.746.038.278.08.57.245.91.164.34.654.826 1.242.826.78 0 1.315-.589 1.545-1 .23-.411.334-.8.375-.904.026-.067.026-.07.031-.084-.018.011.044-.012.299-.012h1.125c.584 0 .988-.413 1.164-.7.177-.286.255-.547.32-.806a7.36 7.36 0 0 0 .192-1.31c.01-.17.033-.304.043-.471.006.005.005.01.011.016.186.153.487.271.756.271h.875c.498 0 .55.05.532.037-.018-.013.113.139.37.61.334.609.765.999 1.079 1.269.314.27.504.426.693.725a1 1 0 0 0 .002.002c.106.165.25.454.55.761a2.08 2.08 0 0 0 1.413.596c.441 0 .951-.324 1.15-.672.068-.119.043-.218.077-.33.21-.034.452-.04.826-.289a1 1 0 0 0 .002-.002c.324-.216.328-.41.427-.635.417.046.741.11 1.186.242.844.253 1.36.213 1.715.309a1 1 0 0 0 0 .002c.095.765.475 1.321.797 1.66.16.17.308.288.43.373.06.043.087.065.203.121.015.008.062.024.09.035.072.044.076.067.181.102.248.082.436.084.666.084h.54l.001.018c.015.227.024.486.035.73.011.244.008.436.072.72.053.238.07.479.28.839.21.36.81.69 1.232.69l.111.001c.026.026.032.03.069.072.154.183.294.457.703.77a1 1 0 0 0 .002.002c.18.138.325.34.572.672.247.33.617.78 1.207 1.097.476.256.912.387 1.422.389.519.002.957-.195 1.252-.361.296-.167.5-.304.746-.41.343-.148.58-.197.69-.213 0 .023.174.08.357.238.127.11.261.234.42.363.159.13.24.383.914.383.167 0 .415.059.852-.014a1.38 1.38 0 0 0 .793-.41c.257-.276.355-.66.355-.951v-.55c.084.058.154.116.332.206a1 1 0 0 0 .002.002c.276.14 1.124.717 2.791.717a1 1 0 0 0 .006 0c.228-.002.596.144 1.148.402.552.258 1.29.598 2.221.598.583 0 1.106-.275 1.438-.576.33-.301.535-.617.708-.87.174-.251.319-.44.399-.513.08-.073.025-.042.055-.041.58.015 1.207.026 1.85-.338.641-.364 1.05-1.193 1.05-2.037.012-.834-.015-1.21.05-1.373.044-.105.13-.178.372-.225.24-.046.568.03.639.07.37.221.834.632 1.343 1.032.51.4 1.09.871 1.971.871.894 0 1.796-.158 2.54-.76.037.184.085.341.085.635 0 .359-.027.308-.252.578-.225.27-.716.967-.615 1.793.027.23.054.25.084.338a9.3 9.3 0 0 0 .432 1.002c.127.253.267.505.447.746.09.12.185.24.338.365.152.126.383.303.795.303.397 0 .517-.113.646-.186.129-.072.231-.147.336-.228a8.03 8.03 0 0 0 .623-.543c.411-.39.738-.715.982-1.05.51-.701 1.159-1.647 1.184-2.847a1 1 0 0 0 0-.021c0-2.286-.555-4.318-1.33-6.14a1 1 0 0 0 0-.003c-.178-.417-.49-1.308-1.053-2.046-.282-.37-.66-.78-1.312-.895-.653-.115-1.337.254-1.758.76-.123.146-.245.199-.297.199-.049 0-.037-.004-.074-.006-.04-.105-.176-.441-.176-1.619 0-.616.101-1.397.14-1.617a1 1 0 0 0 0-.002c.152-.86.414-1.629.862-2.195.163-.206.3-.293.578-.504.278-.212.675-.574.941-1.114.59-1.192.488-2.324.479-3.203-.002-.151-.016-.165-.023-.168.007.009.022.012.046-.004.05-.03.17-.072.395-.23.044-.031.064-.162.115-.215.434.706.908 1.319 1.207 1.861.19.344.361.954.602 1.63.24.673.573 1.46 1.316 2.034.535.416 1.172.709 1.766.94.297.116.58.21.832.281.251.07.412.131.744.131a1 1 0 0 0 1-1c0-.627-.36-1.148-.623-1.412-.264-.264-.426-.402-.432-.41-.2-.288-.336-.664-.537-1.096l-.002-.004c-.173-.376-.26-.683-.525-1.176-.49-.91-1.271-1.627-2.22-1.976a1 1 0 0 0-.003-.002c-.209-.076-.316-.178-.445-.492-.13-.314-.213-.825-.213-1.432v-.979c.158-.077.359-.173.57-.404.24-.262.417-.68.43-1.084.028-.85-.374-1.315-.625-1.75-.251-.435-.375-.819-.375-.783 0-.625-.113-1.247-.625-1.656-.512-.41-1-.344-1.25-.344-.046 0-.053-.002-.072-.025-.02-.024-.1-.124-.059-.489a1 1 0 0 0 .006-.111c0 .07.04-.077.299-.42.259-.343.701-.898.701-1.717 0-.383-.095-.441-.137-.517a1.382 1.382 0 0 0-.107-.166 2.976 2.976 0 0 0-.192-.23 8.091 8.091 0 0 0-1.015-.946 2.586 2.586 0 0 0-.305-.203C56.126 9.11 56.027 9 55.625 9zm-6.145 2.002c-.602.038-.578 1.5-.257 1.965.663.315 1.045-1.63.554-1.889a.56.56 0 0 0-.297-.076zm6.19.254c.019.017.032.027.05.045.06.055.099.1.153.154-.041.083-.033.111-.172.295-.233.31-.652.8-.68 1.574-.066.734.084 1.428.489 1.92.39.474.96.688 1.506.717-.007.004-.016-.006-.016.039 0 .827.388 1.342.643 1.783.207.36.257.527.29.557-.093.04-.186.07-.367.201-.169.122-.285.459-.396.76-.179-.127-.304-.295-.559-.293-.498.007-1.15.365-1.38.826-.233.466-.231.86-.231 1.291a1 1 0 0 0 0 .035c.007.206.003.454 0 .692l-.033.02c-.404.251-.976.995-.967 1.888.01.97.051 1.643-.271 2.297-.11.222-.157.254-.36.408-.203.154-.58.406-.935.855a1 1 0 0 0-.002 0c-.747.945-1.078 2.052-1.26 3.088A12.18 12.18 0 0 0 51 32.375c0 1.438.077 2.258.555 2.945a1 1 0 0 0 .002.004c.21.3.544.49.832.574.288.084.558.102.861.102.786 0 1.379-.419 1.771-.865.012.013-.006-.003.006.013.266.349.59 1.12.803 1.62.698 1.642 1.165 3.383 1.168 5.34-.009.333-.391 1.146-.799 1.706.02-.026-.394.447-.742.778-.017.016-.03.025-.047.04a7.86 7.86 0 0 1-.23-.507 3.68 3.68 0 0 1-.053-.139c-.023-.125-.07.02.158-.254.244-.292.715-.966.715-1.857 0-.601-.054-1.17-.277-1.713-.223-.542-.798-1.154-1.545-1.193h-.002c-.798-.042-1.122.41-1.416.734-.014.015-.652.297-1.385.297.007 0-.313-.111-.736-.443-.423-.333-.925-.803-1.557-1.178a1 1 0 0 0 0-.002c-.624-.37-1.325-.45-2.037-.313-.712.138-1.502.59-1.846 1.434-.323.792-.188 1.41-.199 2.111a1 1 0 0 0 0 .016c0 .406-.003.279-.035.297-.032.018-.343.09-.815.078-.582-.015-1.115.257-1.447.557-.331.3-.532.613-.705.865-.173.252-.32.443-.406.521-.087.08-.05.057-.092.057-.443 0-.853-.164-1.375-.408-.522-.244-1.153-.598-2.006-.592-1.322 0-1.23-.173-1.88-.502h-.003c-.03-.015-.126-.086-.308-.201a1.708 1.708 0 0 0-.92-.297c-.305-.002-.702.012-1.147.258-.445.246-.85.862-.861 1.472a1 1 0 0 0 0 .002v.032l-.031-.028c-.332-.284-.755-.753-1.614-.736h-.001c-.47.01-.943.142-1.526.393v-.002c-.438.188-.748.398-.935.504-.188.105-.205.105-.262.105a1 1 0 0 0-.002 0c.018 0-.33-.068-.484-.15-.227-.122-.344-.26-.55-.534-.204-.274-.475-.692-.962-1.064l-.002-.002c.07.053-.155-.194-.389-.47a2.847 2.847 0 0 0-.451-.446 1.629 1.629 0 0 0-.812-.293l-.002-.01c.011.051-.018-.155-.028-.377-.01-.221-.018-.494-.037-.771a4.48 4.48 0 0 0-.115-.844 1.494 1.494 0 0 0-.22-.518c-.14-.209-.509-.521-.952-.521h-1.25c-.04 0 .01.007-.01.006a.955.955 0 0 1-.367-.613c.002-.19.001-.425-.135-.743-.16-.373-.53-.677-.86-.822-.974-.43-1.753-.314-2.138-.43-.41-.122-1.08-.398-2.115-.398-.366 0-.823.257-1.006.506-.183.248-.216.42-.25.525l-.01.03c-.02-.002-.068.015-.279.06-.138.03-.305.053-.557.188-.088.047-.126.257-.226.369-.031-.049-.035-.049-.072-.108l-.002-.002c-.362-.569-.786-.917-1.077-1.168-.29-.25-.455-.396-.628-.712-.262-.479-.457-.911-.954-1.27-.496-.36-1.076-.418-1.703-.418h-.332c-.04-.122-.06-.227-.177-.402C9.296 32.33 8.833 32 8.375 32a1.95 1.95 0 0 0-1.355.559c-.321.331-.469.705-.557 1.037-.177.662-.148 1.298-.158 1.46A6.21 6.21 0 0 1 6.17 36H5.5c-.343 0-.743-.007-1.2.213-.308.149-.478.481-.671.78-.015-.126-.01-.229-.067-.4-.185-.557-.324-1.377-.685-2.175-.3-.667-.62-.99-.688-1.178-.158-.44-.16-.565-.156-.885.474-.119 1.123-.256 1.117-.255a9.575 9.575 0 0 1 1.077-.1 1 1 0 0 0 .023 0c.706 0 1.33-.575 1.535-1.063.205-.487.222-.933.215-1.33v-.002c-.007-.38 0-.477 0-1.605 0-.363.072-.666.164-.963.092-.296.235-.537.275-1.027.026-.305-.095-.4-.177-.6.182-.007.378.009.504-.053.197-.096.312-.204.412-.308a1 1 0 0 0 .004-.004c.545-.575.643-1.159.75-1.408v-.002c.203-.476.407-.966.623-1.264.215-.299.306-.371.572-.371h1.375a1 1 0 0 0 .955-.707l.035-.074a2.93 2.93 0 0 1 .067-.125c.035-.04.069-.075.086-.094.029-.003.07-.009.158-.012.465.006.89.039 1.4-.152.327-.123.565-.416.822-.666a4.9 4.9 0 0 0 .159 1.1c.114.41.224.778.587 1.166.819.87 2.456 1.564 5.854 1.564.167 0 .104-.014.324.207.11.11.258.278.506.453.249.176.635.34 1.045.34.423 0 .835-.218 1.059-.428.005-.005.004-.007.01-.011.005.035.012.046.017.082.051.355.09.733.17 1.1.04.183.078.362.201.595.062.116.146.256.314.396S24.723 27 25 27c.493 0 .879-.303 1.074-.547.01-.012.01-.023.02-.035A1 1 0 0 0 27 27c.632 0 1.03-.383 1.266-.65.236-.268.4-.52.568-.735.335-.428.514-.615.916-.615.36 0 .684-.165.871-.314.187-.15.286-.284.36-.375.055-.07.074-.083.091-.098.088-.017.162-.026.352-.076.26-.069.628-.247.902-.52a1 1 0 0 0 .002-.002c.3-.3.425-.599.5-.744.076-.145.08-.135.074-.13.14-.102.397-.17.848-.282.45-.112 1.117-.31 1.637-.89a1 1 0 0 0 .002-.003c.176-.197.183-.262.248-.388.08.108.094.213.482.373.13.053.155.024.262.05-.187.26-.381.564-.381.885 0 .584.465 1.028.78 1.186.314.158.59.207.872.248.565.082 1.156.08 1.598.08.82 0 1.32-.502 1.602-.752.28-.25.342-.248.273-.248.066 0 .076.001.09.002-.02-.016.019.009.105.217h-.002c-.072-.174-.015-.034.014.1.03.133.072.317.152.529.08.212.195.463.44.707.245.243.664.445 1.076.445.433 0 .875-.168 1.176-.426a2.09 2.09 0 0 0 .584-.85c.222-.568.24-1.095.24-1.474 0-.63-.105-.6.332-1.063.15-.158.167-.157.38-.183.215-.027.617-.004 1.163-.004.4 0 .806-.074 1.152-.305.347-.23.54-.568.639-.8.199-.464.209-.623.38-.817.034-.037-.006-.023.376-.062.383-.04 1.181-.172 1.703-.82.68-.846.866-1.795 1.053-2.563.187-.768.365-1.352.717-1.75.412-.466 1.329-.824 2.142-1.797.228-.272.436-.577.633-.83zm-29.358 1.746c-.374.037-.359.481-.232.807.185.474 1.021 1.045 1.492 1.164.428.108 1.415-.092 1.428-.688.018-.827-1.213-.514-1.67-.69-.28-.106-.555-.53-.832-.581a.676.676 0 0 0-.186-.012zm6.782 1c-.587.084-1.093.896-1.094 1.281-.003.743.564.818 1.262.623.88-.245.858-.464.531-1.076-.193-.359.07-.69-.443-.816a.67.67 0 0 0-.256-.012zm13.199 2.006c-1.125.08-3.209.805-3.291 1.492-.017.148.058.296.256.434.247.172 1.129-.02 1.627-.213.473-.183.452-.512.842-.772.268-.179 1.4-.409 1.261-.781-.052-.142-.32-.187-.695-.16zm-11.908.996c-.588-.066-1.492.87-1.375 1.496.033.176.147.328.37.426.72.315 1.686-.426 1.616-1.176-.022-.227-.137-.453-.383-.652a.434.434 0 0 0-.228-.094zm-8.684.006c-.908.062-1.743.449-2.617 1.18-.567.473-1.33 1.168-1.008 2.126.201.601 1.051 1.128 1.092.108.156-1.49 1.758-2.004 2.793-2.13.515-.061 1.21.171 1.682-.144.67-.449.281-.756-.204-.906-.622-.193-1.193-.272-1.738-.234zM2.431 18c-1.015.004-.006 1.54.686 1.871 1.401.667.962-1.446-.12-1.771-.236-.07-.42-.1-.565-.1zm8.895 2.438l.006.005.002.008a1 1 0 0 0-.008-.014zM4.25 30h.023l-.027.002L4.25 30zm58.125 1.016c-.117 0-.375-.016-.375.359 0 .357.638.87.73 1.246.112.46-.031.926.065 1.387.077.372.281.722.371 1.094.088.366.24 1.45.772.546.242-.409-.242-1.353-.577-1.648.388-1 .014-3-.986-2.984zM1.572 32.46c-.002 0-.004.003-.006.004-.125.047-.19.04-.191.04.125 0 .084-.035.197-.044zM58.186 34c-.127-.007-.23.069-.29.264-.136.44.472 1.231.678 1.562.607.977 1.284 1.886 1.799 2.932.143.29.267.96.547 1.14.506.328.48-.223.732-.552.041-.053.348.277.35-.192.001-.246-.416-.433-.559-.531-.249-.17-1.233-.555-.925-1.094.19-.335.773.205.703-.427-.048-.424-.908-.93-1.17-1.192-.284-.283-1.316-1.879-1.865-1.91zm5.31 3c-.192.042-.644 2.936-.484 2.986.768.237 1.514-2.747.484-2.986zm-42.299 2.61a1 1 0 0 0 .063.05c-.011-.008-.02-.01-.045-.033l-.018-.018zm1.176 8.785a.997.997 0 0 0-.988.492l-1 1.73a1.001 1.001 0 0 0 .863 1.5.999.999 0 0 0 .867-.5l1-1.73a.998.998 0 0 0-.742-1.492zm19.252 0a1 1 0 0 0-.74 1.494l1 1.73a1 1 0 1 0 1.73-1l-1-1.73a1.002 1.002 0 0 0-.99-.494zm-14.809 1.949a1.002 1.002 0 0 0-.83.732l-.517 1.934a1 1 0 0 0 1.931.517l.52-1.931a1.002 1.002 0 0 0-1.104-1.252zm10.37 0a1.001 1.001 0 0 0-1.106 1.252l.52 1.931a.998.998 0 0 0 1.224.707 1 1 0 0 0 .707-1.224l-.517-1.934a.999.999 0 0 0-.828-.732zM32 51a1 1 0 0 0-1 1v2a1 1 0 1 0 2 0v-2a1 1 0 0 0-1-1z"/></svg>