<svg xmlns="http://www.w3.org/2000/svg" viewBox="0 0 80 80"><path fill="#3c7e9c" d="M22 9.586L9.586 22l17.707 17.707 1.414-1.414L12.414 22 22 12.414l16.293 16.293 1.414-1.414zm42.559.418a5.445 5.445 0 0 0-3.856 1.59l-.844.847-.859-.855L51.586 19 15.14 55.441 9.258 70.738l15.3-5.879.149-.152L68.414 21l-.855-.86.847-.843c1.614-1.617 1.977-4.008 1.13-5.996h.573l-1.703-1.707a5.46 5.46 0 0 0-3.847-1.59zm-.004 1.992c.879 0 1.757.336 2.433 1.016a3.421 3.421 0 0 1 0 4.867l-.847.851-4.871-4.87.851-.848a3.4 3.4 0 0 1 2.434-1.016zM59 14.414L65.586 21l-4.516 4.516-6.586-6.586zM23 17c-.55 0-1 .45-1 1s.45 1 1 1 1-.45 1-1-.45-1-1-1zm-3 3c-.55 0-1 .45-1 1s.45 1 1 1 1-.45 1-1-.45-1-1-1zm6 0c-.55 0-1 .45-1 1s.45 1 1 1 1-.45 1-1-.45-1-1-1zm27 .414L59.586 27l-34.93 34.93c-.176-.551-.449-1.137-.949-1.637-.734-.734-1.66-1.004-2.387-1.148-.23-.047-.23-.024-.418-.047-.023-.188 0-.188-.047-.418-.144-.727-.414-1.653-1.148-2.387-.5-.5-1.086-.773-1.637-.95zM29 23c-.55 0-1 .45-1 1s.45 1 1 1 1-.45 1-1-.45-1-1-1zm24 0c-.55 0-1 .45-1 1s.45 1 1 1 1-.45 1-1-.45-1-1-1zm-27 3c-.55 0-1 .45-1 1s.45 1 1 1 1-.45 1-1-.45-1-1-1zm6 0c-.55 0-1 .45-1 1s.45 1 1 1 1-.45 1-1-.45-1-1-1zm18 0c-.55 0-1 .45-1 1s.45 1 1 1 1-.45 1-1-.45-1-1-1zm-15 3c-.55 0-1 .45-1 1s.45 1 1 1 1-.45 1-1-.45-1-1-1zm12 0c-.55 0-1 .45-1 1s.45 1 1 1 1-.45 1-1-.45-1-1-1zm-15 3c-.55 0-1 .45-1 1s.45 1 1 1 1-.45 1-1-.45-1-1-1zm12 0c-.55 0-1 .45-1 1s.45 1 1 1 1-.45 1-1-.45-1-1-1zm-3 3c-.55 0-1 .45-1 1s.45 1 1 1 1-.45 1-1-.45-1-1-1zm-3 3c-.55 0-1 .45-1 1s.45 1 1 1 1-.45 1-1-.45-1-1-1zm14.707 2.293l-1.414 1.414L67.586 58 58 67.586 41.707 51.293l-1.414 1.414L58 70.414 70.414 58zM35 41c-.55 0-1 .45-1 1s.45 1 1 1 1-.45 1-1-.45-1-1-1zm-3 3c-.55 0-1 .45-1 1s.45 1 1 1 1-.45 1-1-.45-1-1-1zm18 .324a1 1 0 1 0-.001 2 1 1 0 0 0 .001-2zM29 47c-.55 0-1 .45-1 1s.45 1 1 1 1-.45 1-1-.45-1-1-1zm24 0c-.55 0-1 .45-1 1s.45 1 1 1 1-.45 1-1-.45-1-1-1zm-6 .324a1 1 0 1 0-.001 2 1 1 0 0 0 .001-2zM26 50c-.55 0-1 .45-1 1s.45 1 1 1 1-.45 1-1-.45-1-1-1zm30 .324a1 1 0 1 0-.001 2 1 1 0 0 0 .001-2zM23 53c-.55 0-1 .45-1 1s.45 1 1 1 1-.45 1-1-.45-1-1-1zm36 0c-.55 0-1 .45-1 1s.45 1 1 1 1-.45 1-1-.45-1-1-1zm-6 .324a1 1 0 1 0-.001 2 1 1 0 0 0 .001-2zm9 3a1 1 0 1 0-.001 2 1 1 0 0 0 .001-2zm-45.34.742c.094.016.164.02.27.04.523.105 1.097.335 1.363.601.266.266.496.84.602 1.363.105.524.105.93.105.93v1h1s.406 0 .93.105c.523.106 1.097.336 1.363.602.266.266.496.84.602 1.363.02.106.023.176.039.27l-6.93 2.664-2.008-2.008zM59 59.324a1 1 0 1 0-.001 2 1 1 0 0 0 .001-2z"/></svg>